<svg width="16" height="16" viewBox="0 0 16 16" fill="none" xmlns="http://www.w3.org/2000/svg">
<path fill-rule="evenodd" clip-rule="evenodd" d="M0.87868 0.87868C0 1.75736 0 3.17157 0 6V10C0 12.8284 0 14.2426 0.87868 15.1213C1.75736 16 3.17157 16 6 16H10C12.8284 16 14.2426 16 15.1213 15.1213C16 14.2426 16 12.8284 16 10V6C16 3.17157 16 1.75736 15.1213 0.87868C14.2426 0 12.8284 0 10 0H6C3.17157 0 1.75736 0 0.87868 0.87868ZM3.99344 5.01216C3.33466 5.01216 2.8 4.47202 2.8 3.80608C2.8 3.14014 3.33466 2.6 3.99344 2.6C4.65222 2.6 5.18688 3.14014 5.18688 3.80608C5.18688 4.47202 4.6529 5.01216 3.99344 5.01216ZM2.97049 13.4V5.87911H5.01639V13.4H2.97049ZM11.1541 13.4H13.2V8.77876C13.2 5.18719 9.37894 5.31778 8.42623 7.08587V5.87911H6.38033V13.4H8.42623V9.56845C8.42623 7.44004 11.1541 7.26569 11.1541 9.56845V13.4Z" fill="url(#paint0_linear)"/>
<defs>
<linearGradient id="paint0_linear" x1="8" y1="0" x2="8" y2="16" gradientUnits="userSpaceOnUse">
<stop stop-color="#D8C281"/>
<stop offset="1" stop-color="#AC9B69"/>
</linearGradient>
</defs>
</svg>
